<?xml version="1.0" encoding="UTF-8" standalone="no"?>
<svg
   viewBox="0 0 362.79999 512"
   version="1.1"
   id="svg5"
   sodipodi:docname="HTML5_logo_and_wordmark.svg"
   width="362.79999"
   height="512"
   inkscape:version="1.4 (86a8ad7, 2024-10-11)"
   xmlns:inkscape="http://www.inkscape.org/namespaces/inkscape"
   xmlns:sodipodi="http://sodipodi.sourceforge.net/DTD/sodipodi-0.dtd"
   xmlns="http://www.w3.org/2000/svg"
   xmlns:svg="http://www.w3.org/2000/svg"
   xmlns:rdf="http://www.w3.org/1999/02/22-rdf-syntax-ns#"
   xmlns:cc="http://creativecommons.org/ns#"
   xmlns:dc="http://purl.org/dc/elements/1.1/">
  <defs
     id="defs5" />
  <sodipodi:namedview
     id="namedview5"
     pagecolor="#ffffff"
     bordercolor="#000000"
     borderopacity="0.25"
     inkscape:showpageshadow="2"
     inkscape:pageopacity="0.0"
     inkscape:pagecheckerboard="0"
     inkscape:deskcolor="#d1d1d1"
     inkscape:zoom="0.5"
     inkscape:cx="197"
     inkscape:cy="317"
     inkscape:window-width="1920"
     inkscape:window-height="1017"
     inkscape:window-x="1042"
     inkscape:window-y="519"
     inkscape:window-maximized="1"
     inkscape:current-layer="svg5" />
  <title
     id="title1">HTML5 Logo</title>
  <path
     d="m 33.8,4.1699999e-6 h 23 V 22.800004 H 78 V 4.1699999e-6 h 23 V 69.000004 H 78 v -23 H 57 v 23 H 33.8 m 97.59999,-46 h -20.3 V 4.1699999e-6 h 63.7 V 23.000004 h -20.4 v 46 h -23 m 53.5,-68.9999998300001 h 24.1 L 223.79999,24.300004 238.59999,4.1699999e-6 h 24.1 V 69.000004 h -23 v -34.2 l -16.1,24.8 -16.09999,-24.8 v 34.2 H 184.9 M 274.1,4.1699999e-6 h 23 V 46.200004 h 32.6 v 22.8 h -55.6"
     id="path1" />
  <path
     fill="#e44d26"
     d="M 33,471 0,100.6 h 362.8 l -33,370.2 -148.7,41.2"
     id="path2" />
  <path
     fill="#f16529"
     d="M 181.39999,480.5 V 131 h 148.3 l -28.3,316"
     id="path3" />
  <path
     fill="#ebebeb"
     d="m 67.4,176.3 h 113.99999 v 45.4 h -64.2 l 4.2,46.5 h 60 v 45.3 H 79.8 m 2,22.8 h 45.59999 l 3.2,36.3 50.8,13.6 v 47.4 L 88.2,407.6"
     id="path4" />
  <path
     fill="#ffffff"
     d="M 295,176.3 H 181.19999 v 45.4 h 109.6 m -4.1,46.5 h -105.5 v 45.4 h 56 l -5.3,59 -50.7,13.6 v 47.2 l 93,-25.8"
     id="path5" />
  <metadata
     id="metadata5">
    <rdf:RDF>
      <cc:Work
         rdf:about="">
        <dc:title>HTML5 Logo</dc:title>
      </cc:Work>
    </rdf:RDF>
  </metadata>
</svg>
